<svg width="176" height="39" viewBox="0 0 176 39" fill="none" xmlns="http://www.w3.org/2000/svg">
<rect width="176" height="38.3782" rx="4.49744" fill="black"/>
<rect width="176" height="38.3782" rx="4.49744" fill="url(#paint0_linear_43_2)"/>
<path d="M15.4337 20.1711V18.8984L25.6784 13.6806V15.7168L17.8199 19.5029L17.8835 19.3757V19.6938L17.8199 19.5666L25.6784 23.3527V25.3889L15.4337 20.1711ZM35.4161 8.84456L30.1665 28.3478H28.4484L33.6981 8.84456H35.4161ZM48.4269 20.1711L38.1821 25.3889V23.3527L46.0407 19.5666L45.9771 19.6938V19.3757L46.0407 19.5029L38.1821 15.7168V13.6806L48.4269 18.8984V20.1711Z" fill="white"/>
<path d="M64.9226 23.7217L68.7538 12.6925H70.6203L65.8067 25.6953H64.4761L64.9226 23.7217ZM61.3415 12.6925L65.1369 23.7217L65.6103 25.6953H64.2796L59.475 12.6925H61.3415ZM73.9156 16.0325V25.6953H72.2545V16.0325H73.9156ZM72.1295 13.4695C72.1295 13.2016 72.2099 12.9753 72.3706 12.7908C72.5373 12.6062 72.7814 12.5139 73.1029 12.5139C73.4185 12.5139 73.6596 12.6062 73.8263 12.7908C73.9989 12.9753 74.0853 13.2016 74.0853 13.4695C74.0853 13.7255 73.9989 13.9458 73.8263 14.1304C73.6596 14.309 73.4185 14.3983 73.1029 14.3983C72.7814 14.3983 72.5373 14.309 72.3706 14.1304C72.2099 13.9458 72.1295 13.7255 72.1295 13.4695ZM78.2201 18.0955V25.6953H76.5679V16.0325H78.1308L78.2201 18.0955ZM77.8271 20.4978L77.1395 20.471C77.1455 19.8101 77.2437 19.1999 77.4342 18.6402C77.6247 18.0746 77.8926 17.5835 78.2379 17.1667C78.5833 16.75 78.9941 16.4285 79.4704 16.2022C79.9526 15.97 80.4854 15.8539 81.0689 15.8539C81.5452 15.8539 81.9739 15.9194 82.3549 16.0504C82.7359 16.1754 83.0604 16.3779 83.3283 16.6577C83.6022 16.9375 83.8106 17.3007 83.9534 17.7472C84.0963 18.1878 84.1678 18.7266 84.1678 19.3636V25.6953H82.5067V19.3457C82.5067 18.8397 82.4323 18.4348 82.2834 18.1312C82.1346 17.8216 81.9173 17.5984 81.6315 17.4614C81.3457 17.3185 80.9945 17.2471 80.5777 17.2471C80.1669 17.2471 79.7918 17.3334 79.4525 17.5061C79.1191 17.6787 78.8303 17.9169 78.5862 18.2205C78.3481 18.5241 78.1605 18.8724 78.0236 19.2654C77.8926 19.6524 77.8271 20.0632 77.8271 20.4978ZM92.3034 23.1323C92.3034 22.8941 92.2499 22.6738 92.1427 22.4714C92.0415 22.263 91.8301 22.0755 91.5086 21.9088C91.1931 21.7361 90.7168 21.5873 90.0798 21.4623C89.5439 21.3491 89.0587 21.2152 88.6241 21.0604C88.1954 20.9056 87.8293 20.7181 87.5256 20.4978C87.228 20.2775 86.9987 20.0185 86.838 19.7208C86.6772 19.4231 86.5969 19.0749 86.5969 18.676C86.5969 18.2949 86.6802 17.9347 86.8469 17.5954C87.0196 17.256 87.2607 16.9554 87.5703 16.6934C87.8858 16.4314 88.2639 16.226 88.7045 16.0772C89.145 15.9284 89.6362 15.8539 90.178 15.8539C90.952 15.8539 91.6128 15.9909 92.1606 16.2647C92.7083 16.5386 93.128 16.9048 93.4197 17.3632C93.7115 17.8157 93.8573 18.3187 93.8573 18.8724H92.2052C92.2052 18.6045 92.1248 18.3455 91.9641 18.0955C91.8093 17.8395 91.5801 17.6281 91.2764 17.4614C90.9788 17.2947 90.6126 17.2114 90.178 17.2114C89.7196 17.2114 89.3475 17.2828 89.0617 17.4257C88.7819 17.5626 88.5765 17.7383 88.4455 17.9526C88.3204 18.1669 88.2579 18.3932 88.2579 18.6313C88.2579 18.8099 88.2877 18.9707 88.3472 19.1136C88.4127 19.2505 88.5258 19.3785 88.6866 19.4976C88.8473 19.6107 89.0736 19.7178 89.3653 19.8191C89.657 19.9203 90.0291 20.0215 90.4816 20.1227C91.2735 20.3013 91.9254 20.5156 92.4374 20.7657C92.9494 21.0157 93.3304 21.3224 93.5805 21.6855C93.8306 22.0487 93.9556 22.4893 93.9556 23.0072C93.9556 23.4299 93.8663 23.8169 93.6877 24.1682C93.515 24.5195 93.262 24.8231 92.9286 25.0791C92.6011 25.3292 92.2082 25.5256 91.7498 25.6685C91.2973 25.8055 90.7882 25.8739 90.2226 25.8739C89.3713 25.8739 88.6509 25.7221 88.0615 25.4185C87.4721 25.1148 87.0255 24.7219 86.7219 24.2396C86.4183 23.7574 86.2664 23.2484 86.2664 22.7125H87.9275C87.9513 23.165 88.0823 23.5252 88.3204 23.7931C88.5586 24.0551 88.8503 24.2426 89.1956 24.3557C89.5409 24.4629 89.8833 24.5165 90.2226 24.5165C90.6751 24.5165 91.0532 24.457 91.3568 24.3379C91.6664 24.2188 91.9016 24.0551 92.0623 23.8467C92.2231 23.6383 92.3034 23.4002 92.3034 23.1323ZM103.306 22.4089C103.306 22.1053 103.258 21.8373 103.163 21.6052C103.074 21.367 102.913 21.1527 102.681 20.9622C102.454 20.7716 102.139 20.5901 101.734 20.4174C101.335 20.2447 100.829 20.0691 100.216 19.8905C99.5728 19.7 98.9924 19.4886 98.4744 19.2564C97.9564 19.0183 97.5129 18.7474 97.1438 18.4438C96.7746 18.1401 96.4918 17.7918 96.2954 17.3989C96.0989 17.006 96.0007 16.5565 96.0007 16.0504C96.0007 15.5443 96.1048 15.077 96.3132 14.6483C96.5216 14.2197 96.8193 13.8476 97.2063 13.532C97.5992 13.2105 98.0666 12.9605 98.6083 12.7818C99.1501 12.6032 99.7544 12.5139 100.421 12.5139C101.398 12.5139 102.225 12.7015 102.904 13.0766C103.589 13.4457 104.11 13.9309 104.467 14.5322C104.824 15.1276 105.003 15.7646 105.003 16.4433H103.288C103.288 15.9551 103.184 15.5235 102.975 15.1484C102.767 14.7674 102.451 14.4697 102.029 14.2554C101.606 14.0351 101.07 13.9249 100.421 13.9249C99.808 13.9249 99.3019 14.0172 98.9031 14.2018C98.5042 14.3864 98.2065 14.6364 98.01 14.952C97.8195 15.2675 97.7242 15.6277 97.7242 16.0325C97.7242 16.3064 97.7808 16.5565 97.8939 16.7827C98.013 17.003 98.1946 17.2084 98.4387 17.3989C98.6887 17.5894 99.0043 17.7651 99.3853 17.9258C99.7723 18.0865 100.234 18.2413 100.77 18.3902C101.508 18.5986 102.145 18.8308 102.681 19.0868C103.216 19.3428 103.657 19.6315 104.002 19.953C104.354 20.2686 104.613 20.6288 104.779 21.0336C104.952 21.4325 105.038 21.885 105.038 22.391C105.038 22.9209 104.931 23.4002 104.717 23.8288C104.502 24.2575 104.196 24.6237 103.797 24.9273C103.398 25.2309 102.919 25.4661 102.359 25.6328C101.805 25.7935 101.186 25.8739 100.502 25.8739C99.9003 25.8739 99.3079 25.7906 98.7244 25.6239C98.1469 25.4572 97.62 25.2071 97.1438 24.8737C96.6734 24.5403 96.2954 24.1295 96.0096 23.6413C95.7298 23.1472 95.5899 22.5756 95.5899 21.9267H97.3045C97.3045 22.3732 97.3908 22.7572 97.5635 23.0787C97.7361 23.3942 97.9713 23.6562 98.269 23.8646C98.5726 24.0729 98.915 24.2277 99.296 24.329C99.683 24.4242 100.085 24.4718 100.502 24.4718C101.103 24.4718 101.612 24.3885 102.029 24.2218C102.445 24.0551 102.761 23.8169 102.975 23.5073C103.196 23.1978 103.306 22.8316 103.306 22.4089ZM106.548 20.9711V20.7657C106.548 20.0691 106.649 19.4231 106.851 18.8278C107.054 18.2265 107.345 17.7055 107.726 17.2649C108.107 16.8184 108.569 16.4731 109.111 16.229C109.652 15.979 110.26 15.8539 110.932 15.8539C111.611 15.8539 112.221 15.979 112.763 16.229C113.311 16.4731 113.775 16.8184 114.156 17.2649C114.543 17.7055 114.838 18.2265 115.04 18.8278C115.243 19.4231 115.344 20.0691 115.344 20.7657V20.9711C115.344 21.6677 115.243 22.3136 115.04 22.909C114.838 23.5044 114.543 24.0253 114.156 24.4718C113.775 24.9124 113.314 25.2577 112.772 25.5078C112.236 25.7519 111.629 25.8739 110.95 25.8739C110.272 25.8739 109.661 25.7519 109.12 25.5078C108.578 25.2577 108.113 24.9124 107.726 24.4718C107.345 24.0253 107.054 23.5044 106.851 22.909C106.649 22.3136 106.548 21.6677 106.548 20.9711ZM108.2 20.7657V20.9711C108.2 21.4533 108.256 21.9088 108.369 22.3375C108.482 22.7602 108.652 23.1352 108.878 23.4627C109.111 23.7901 109.399 24.0491 109.745 24.2396C110.09 24.4242 110.492 24.5165 110.95 24.5165C111.403 24.5165 111.799 24.4242 112.138 24.2396C112.483 24.0491 112.769 23.7901 112.995 23.4627C113.222 23.1352 113.391 22.7602 113.504 22.3375C113.623 21.9088 113.683 21.4533 113.683 20.9711V20.7657C113.683 20.2894 113.623 19.8399 113.504 19.4172C113.391 18.9885 113.219 18.6105 112.986 18.283C112.76 17.9496 112.474 17.6877 112.129 17.4971C111.79 17.3066 111.391 17.2114 110.932 17.2114C110.48 17.2114 110.081 17.3066 109.736 17.4971C109.396 17.6877 109.111 17.9496 108.878 18.283C108.652 18.6105 108.482 18.9885 108.369 19.4172C108.256 19.8399 108.2 20.2894 108.2 20.7657ZM119.881 25.6953H118.229V15.0145C118.229 14.3179 118.354 13.7315 118.604 13.2552C118.86 12.7729 119.226 12.4097 119.702 12.1656C120.178 11.9156 120.744 11.7906 121.399 11.7906C121.589 11.7906 121.78 11.8025 121.97 11.8263C122.167 11.8501 122.357 11.8858 122.542 11.9335L122.453 13.282C122.328 13.2522 122.185 13.2313 122.024 13.2194C121.869 13.2075 121.714 13.2016 121.56 13.2016C121.208 13.2016 120.905 13.273 120.649 13.4159C120.399 13.5528 120.208 13.7553 120.077 14.0232C119.946 14.2911 119.881 14.6215 119.881 15.0145V25.6953ZM121.935 16.0325V17.3007H116.701V16.0325H121.935ZM127.82 16.0325V17.3007H122.596V16.0325H127.82ZM124.364 13.6838H126.016V23.3019C126.016 23.6294 126.067 23.8765 126.168 24.0432C126.269 24.2099 126.4 24.32 126.561 24.3736C126.721 24.4272 126.894 24.454 127.079 24.454C127.216 24.454 127.359 24.4421 127.507 24.4183C127.662 24.3885 127.778 24.3647 127.856 24.3468L127.865 25.6953C127.734 25.737 127.561 25.7757 127.347 25.8114C127.138 25.8531 126.885 25.8739 126.588 25.8739C126.183 25.8739 125.811 25.7935 125.471 25.6328C125.132 25.4721 124.861 25.2041 124.659 24.8291C124.462 24.448 124.364 23.936 124.364 23.293V13.6838ZM132.205 23.9807L134.687 16.0325H135.777L135.563 17.6132L133.035 25.6953H131.973L132.205 23.9807ZM130.535 16.0325L132.651 24.07L132.803 25.6953H131.687L128.883 16.0325H130.535ZM138.152 24.0075L140.171 16.0325H141.814L139.01 25.6953H137.902L138.152 24.0075ZM136.018 16.0325L138.447 23.8467L138.724 25.6953H137.67L135.071 17.5954L134.857 16.0325H136.018ZM149.208 24.0432V19.0689C149.208 18.6879 149.131 18.3574 148.976 18.0776C148.827 17.7918 148.601 17.5716 148.298 17.4168C147.994 17.262 147.619 17.1846 147.172 17.1846C146.756 17.1846 146.389 17.256 146.074 17.3989C145.764 17.5418 145.52 17.7293 145.342 17.9615C145.169 18.1937 145.083 18.4438 145.083 18.7117H143.43C143.43 18.3664 143.52 18.024 143.698 17.6847C143.877 17.3453 144.133 17.0387 144.466 16.7648C144.806 16.485 145.211 16.2647 145.681 16.104C146.157 15.9373 146.687 15.8539 147.27 15.8539C147.973 15.8539 148.592 15.973 149.128 16.2112C149.67 16.4493 150.093 16.8095 150.396 17.2917C150.706 17.768 150.861 18.3664 150.861 19.0868V23.5877C150.861 23.9092 150.887 24.2516 150.941 24.6147C151 24.9779 151.087 25.2905 151.2 25.5524V25.6953H149.476C149.393 25.5048 149.327 25.2518 149.28 24.9362C149.232 24.6147 149.208 24.317 149.208 24.0432ZM149.494 19.8369L149.512 20.9979H147.842C147.372 20.9979 146.952 21.0366 146.583 21.114C146.214 21.1854 145.904 21.2956 145.654 21.4444C145.404 21.5932 145.214 21.7808 145.083 22.007C144.952 22.2273 144.886 22.4863 144.886 22.784C144.886 23.0876 144.955 23.3645 145.091 23.6145C145.228 23.8646 145.434 24.064 145.708 24.2129C145.987 24.3557 146.33 24.4272 146.735 24.4272C147.241 24.4272 147.687 24.32 148.074 24.1057C148.461 23.8914 148.768 23.6294 148.994 23.3198C149.226 23.0102 149.351 22.7096 149.369 22.4178L150.075 23.2126C150.033 23.4627 149.92 23.7395 149.735 24.0432C149.551 24.3468 149.304 24.6385 148.994 24.9184C148.69 25.1922 148.327 25.4214 147.905 25.606C147.488 25.7846 147.017 25.8739 146.494 25.8739C145.839 25.8739 145.264 25.7459 144.77 25.4899C144.282 25.2339 143.901 24.8916 143.627 24.4629C143.359 24.0283 143.225 23.5431 143.225 23.0072C143.225 22.4893 143.326 22.0338 143.529 21.6409C143.731 21.242 144.023 20.9116 144.404 20.6496C144.785 20.3817 145.243 20.1793 145.779 20.0423C146.315 19.9054 146.913 19.8369 147.574 19.8369H149.494ZM155.111 17.5507V25.6953H153.459V16.0325H155.067L155.111 17.5507ZM158.13 15.979L158.121 17.515C157.984 17.4852 157.853 17.4674 157.728 17.4614C157.609 17.4495 157.472 17.4436 157.317 17.4436C156.936 17.4436 156.6 17.5031 156.308 17.6222C156.016 17.7412 155.769 17.9079 155.567 18.1223C155.364 18.3366 155.204 18.5926 155.085 18.8903C154.972 19.182 154.897 19.5035 154.861 19.8548L154.397 20.1227C154.397 19.5392 154.454 18.9915 154.567 18.4795C154.686 17.9675 154.867 17.515 155.111 17.1221C155.356 16.7232 155.665 16.4136 156.04 16.1933C156.421 15.9671 156.874 15.8539 157.398 15.8539C157.517 15.8539 157.654 15.8688 157.808 15.8986C157.963 15.9224 158.07 15.9492 158.13 15.979ZM163.488 25.8739C162.815 25.8739 162.205 25.7608 161.657 25.5346C161.116 25.3024 160.648 24.9779 160.255 24.5611C159.868 24.1444 159.571 23.6502 159.362 23.0787C159.154 22.5071 159.05 21.882 159.05 21.2033V20.8282C159.05 20.0423 159.166 19.3428 159.398 18.7295C159.63 18.1104 159.946 17.5864 160.345 17.1578C160.744 16.7291 161.196 16.4046 161.702 16.1844C162.208 15.9641 162.732 15.8539 163.274 15.8539C163.965 15.8539 164.56 15.973 165.06 16.2112C165.566 16.4493 165.98 16.7827 166.301 17.2114C166.623 17.6341 166.861 18.1342 167.016 18.7117C167.171 19.2832 167.248 19.9084 167.248 20.5871V21.3283H160.032V19.9798H165.596V19.8548C165.572 19.4261 165.483 19.0094 165.328 18.6045C165.179 18.1997 164.941 17.8663 164.613 17.6043C164.286 17.3423 163.839 17.2114 163.274 17.2114C162.899 17.2114 162.554 17.2917 162.238 17.4525C161.922 17.6073 161.652 17.8395 161.425 18.1491C161.199 18.4587 161.023 18.8367 160.898 19.2832C160.773 19.7298 160.711 20.2447 160.711 20.8282V21.2033C160.711 21.6617 160.773 22.0934 160.898 22.4982C161.029 22.8971 161.217 23.2484 161.461 23.552C161.711 23.8556 162.012 24.0938 162.363 24.2664C162.72 24.4391 163.125 24.5254 163.578 24.5254C164.161 24.5254 164.655 24.4063 165.06 24.1682C165.465 23.9301 165.819 23.6115 166.123 23.2126L167.123 24.0075C166.915 24.323 166.65 24.6237 166.328 24.9094C166.007 25.1952 165.611 25.4274 165.14 25.606C164.676 25.7846 164.125 25.8739 163.488 25.8739Z" fill="white"/>
<defs>
<linearGradient id="paint0_linear_43_2" x1="88" y1="0" x2="88" y2="38.3782" gradientUnits="userSpaceOnUse">
<stop stop-color="#012A79"/>
<stop offset="1" stop-color="#012A79" stop-opacity="0"/>
</linearGradient>
</defs>
</svg>
